<mxfile host="app.diagrams.net" modified="2022-07-02T04:17:48.904Z" agent="5.0 (Windows NT 10.0; Win64; x64) AppleWebKit/537.36 (KHTML, like Gecko) Chrome/102.0.5005.124 Safari/537.36 Edg/102.0.1245.44" etag="OfWxHDz7D91y8zR_YZfh" version="20.0.3" type="github">
  <diagram id="HPuY76YFBBVVepUrAg1s" name="Page-1">
    <mxGraphModel dx="1111" dy="805" grid="1" gridSize="10" guides="1" tooltips="1" connect="1" arrows="1" fold="1" page="1" pageScale="1" pageWidth="827" pageHeight="1169" math="0" shadow="0">
      <root>
        <mxCell id="0" />
        <mxCell id="1" parent="0" />
        <mxCell id="S-Lnv91buSKmslDG_ZGh-6" value="" style="edgeStyle=orthogonalEdgeStyle;rounded=0;orthogonalLoop=1;jettySize=auto;html=1;fontFamily=Lucida Console;fontSize=16;" edge="1" parent="1" source="S-Lnv91buSKmslDG_ZGh-4" target="S-Lnv91buSKmslDG_ZGh-5">
          <mxGeometry relative="1" as="geometry" />
        </mxCell>
        <mxCell id="S-Lnv91buSKmslDG_ZGh-4" value="xDecompressCU" style="rounded=0;whiteSpace=wrap;html=1;fontFamily=Lucida Console;fontSize=16;" vertex="1" parent="1">
          <mxGeometry x="140" y="210" width="140" height="60" as="geometry" />
        </mxCell>
        <mxCell id="S-Lnv91buSKmslDG_ZGh-8" value="" style="edgeStyle=orthogonalEdgeStyle;rounded=0;orthogonalLoop=1;jettySize=auto;html=1;fontFamily=Lucida Console;fontSize=16;" edge="1" parent="1" source="S-Lnv91buSKmslDG_ZGh-5" target="S-Lnv91buSKmslDG_ZGh-7">
          <mxGeometry relative="1" as="geometry" />
        </mxCell>
        <mxCell id="S-Lnv91buSKmslDG_ZGh-5" value="xReconInter" style="whiteSpace=wrap;html=1;fontSize=16;fontFamily=Lucida Console;rounded=0;" vertex="1" parent="1">
          <mxGeometry x="150" y="350" width="120" height="60" as="geometry" />
        </mxCell>
        <mxCell id="S-Lnv91buSKmslDG_ZGh-12" value="" style="edgeStyle=orthogonalEdgeStyle;rounded=0;orthogonalLoop=1;jettySize=auto;html=1;fontFamily=Lucida Console;fontSize=16;" edge="1" parent="1" source="S-Lnv91buSKmslDG_ZGh-7" target="S-Lnv91buSKmslDG_ZGh-11">
          <mxGeometry relative="1" as="geometry" />
        </mxCell>
        <mxCell id="S-Lnv91buSKmslDG_ZGh-7" value="motionCompensation" style="whiteSpace=wrap;html=1;fontSize=16;fontFamily=Lucida Console;rounded=0;" vertex="1" parent="1">
          <mxGeometry x="115" y="490" width="190" height="60" as="geometry" />
        </mxCell>
        <mxCell id="S-Lnv91buSKmslDG_ZGh-15" value="" style="edgeStyle=orthogonalEdgeStyle;rounded=0;orthogonalLoop=1;jettySize=auto;html=1;fontFamily=Lucida Console;fontSize=16;" edge="1" parent="1" source="S-Lnv91buSKmslDG_ZGh-11" target="S-Lnv91buSKmslDG_ZGh-14">
          <mxGeometry relative="1" as="geometry" />
        </mxCell>
        <mxCell id="S-Lnv91buSKmslDG_ZGh-19" value="" style="edgeStyle=orthogonalEdgeStyle;rounded=0;orthogonalLoop=1;jettySize=auto;html=1;fontFamily=Lucida Console;fontSize=16;" edge="1" parent="1" source="S-Lnv91buSKmslDG_ZGh-11" target="S-Lnv91buSKmslDG_ZGh-18">
          <mxGeometry relative="1" as="geometry" />
        </mxCell>
        <mxCell id="S-Lnv91buSKmslDG_ZGh-11" value="xPredInterBi" style="whiteSpace=wrap;html=1;fontSize=16;fontFamily=Lucida Console;rounded=0;" vertex="1" parent="1">
          <mxGeometry x="500" y="490" width="120" height="60" as="geometry" />
        </mxCell>
        <mxCell id="S-Lnv91buSKmslDG_ZGh-13" value="new cuPred_SR[2]" style="text;html=1;resizable=0;autosize=1;align=center;verticalAlign=middle;points=[];fillColor=none;strokeColor=none;rounded=0;fontFamily=Lucida Console;fontSize=16;" vertex="1" parent="1">
          <mxGeometry x="317" y="485" width="180" height="30" as="geometry" />
        </mxCell>
        <mxCell id="S-Lnv91buSKmslDG_ZGh-17" value="" style="edgeStyle=orthogonalEdgeStyle;rounded=0;orthogonalLoop=1;jettySize=auto;html=1;fontFamily=Lucida Console;fontSize=16;" edge="1" parent="1" source="S-Lnv91buSKmslDG_ZGh-14" target="S-Lnv91buSKmslDG_ZGh-16">
          <mxGeometry relative="1" as="geometry" />
        </mxCell>
        <mxCell id="S-Lnv91buSKmslDG_ZGh-14" value="xPredInterUni" style="whiteSpace=wrap;html=1;fontSize=16;fontFamily=Lucida Console;rounded=0;" vertex="1" parent="1">
          <mxGeometry x="490" y="585" width="140" height="60" as="geometry" />
        </mxCell>
        <mxCell id="S-Lnv91buSKmslDG_ZGh-16" value="xWeightedAverage" style="whiteSpace=wrap;html=1;fontSize=16;fontFamily=Lucida Console;rounded=0;" vertex="1" parent="1">
          <mxGeometry x="475" y="725" width="170" height="60" as="geometry" />
        </mxCell>
        <mxCell id="S-Lnv91buSKmslDG_ZGh-18" value="END" style="whiteSpace=wrap;html=1;fontSize=16;fontFamily=Lucida Console;rounded=0;" vertex="1" parent="1">
          <mxGeometry x="810" y="490" width="120" height="60" as="geometry" />
        </mxCell>
        <mxCell id="S-Lnv91buSKmslDG_ZGh-20" value="delete[] cuPred_SR" style="text;html=1;resizable=0;autosize=1;align=center;verticalAlign=middle;points=[];fillColor=none;strokeColor=none;rounded=0;fontFamily=Lucida Console;fontSize=16;" vertex="1" parent="1">
          <mxGeometry x="610" y="485" width="200" height="30" as="geometry" />
        </mxCell>
      </root>
    </mxGraphModel>
  </diagram>
</mxfile>
